<svg width="55" height="44" viewBox="0 0 55 44" fill="none" xmlns="http://www.w3.org/2000/svg">
<path opacity="0.3" d="M31.448 43.5166L39.896 12.7966L42.712 24.3166C39.0427 24.3166 36.056 23.2499 33.752 21.1166C31.448 18.9833 30.296 16.0393 30.296 12.2846C30.296 8.61526 31.4907 5.6286 33.88 3.3246C36.184 1.10593 39.0853 -0.0034041 42.584 -0.0034038C46.168 -0.00340348 49.1547 1.10593 51.544 3.3246C53.848 5.6286 55 8.61526 55 12.2846C55 13.3939 54.9147 14.4606 54.744 15.4846C54.5733 16.5939 54.232 17.8739 53.72 19.3246C53.208 20.7753 52.4827 22.6953 51.544 25.0846L44.12 43.5166L31.448 43.5166ZM1.24 43.5166L9.688 12.7966L12.504 24.3166C8.83467 24.3166 5.848 23.2499 3.544 21.1166C1.24 18.9833 0.0879998 16.0393 0.0880002 12.2846C0.0880005 8.61526 1.28267 5.62859 3.672 3.3246C5.976 1.10593 8.87734 -0.00340674 12.376 -0.00340644C15.96 -0.00340612 18.9467 1.10593 21.336 3.3246C23.64 5.6286 24.792 8.61526 24.792 12.2846C24.792 13.3939 24.7067 14.4606 24.536 15.4846C24.3653 16.5939 24.024 17.8739 23.512 19.3246C23 20.7753 22.2747 22.6953 21.336 25.0846L13.912 43.5166L1.24 43.5166Z" fill="white"/>
</svg>
