<svg width="55" height="44" viewBox="0 0 55 44" fill="none" xmlns="http://www.w3.org/2000/svg">
<path opacity="0.3" d="M23.552 0L15.104 30.72L12.288 19.2C15.9573 19.2 18.944 20.2667 21.248 22.4C23.552 24.5333 24.704 27.4773 24.704 31.232C24.704 34.9013 23.5093 37.888 21.12 40.192C18.816 42.4107 15.9147 43.52 12.416 43.52C8.832 43.52 5.84533 42.4107 3.456 40.192C1.152 37.888 0 34.9013 0 31.232C0 30.1227 0.0853333 29.056 0.256 28.032C0.426667 26.9227 0.768 25.6427 1.28 24.192C1.792 22.7413 2.51733 20.8213 3.456 18.432L10.88 0L23.552 0ZM53.76 0L45.312 30.72L42.496 19.2C46.1653 19.2 49.152 20.2667 51.456 22.4C53.76 24.5333 54.912 27.4773 54.912 31.232C54.912 34.9013 53.7173 37.888 51.328 40.192C49.024 42.4107 46.1227 43.52 42.624 43.52C39.04 43.52 36.0533 42.4107 33.664 40.192C31.36 37.888 30.208 34.9013 30.208 31.232C30.208 30.1227 30.2933 29.056 30.464 28.032C30.6347 26.9227 30.976 25.6427 31.488 24.192C32 22.7413 32.7253 20.8213 33.664 18.432L41.088 0L53.76 0Z" fill="white"/>
</svg>
